<!-- IMPORTANT: If you re-export this file, you must re-add preserveAspectRatio="none" to the SVG tag to ensure correct sprite positioning on high-resolution devices -->
<svg id="Layer_1" data-name="Layer 1" xmlns="http://www.w3.org/2000/svg" width="154" height="22" viewBox="0 0 154 22" preserveAspectRatio="none"><defs><style>.cls-1{fill:#b10e1e;}.cls-2{fill:#fff;}.cls-3,.cls-4,.cls-8{fill:none;stroke:#fff;stroke-width:1.5px;}.cls-3,.cls-4{stroke-linecap:round;}.cls-3,.cls-8{stroke-miterlimit:10;}.cls-4{stroke-linejoin:round;}.cls-5{fill:#005ea5;}.cls-6{fill:#f47738;}.cls-7{fill:#00823b;}</style></defs><title>status-label-icons</title><g id="rfi"><circle class="cls-1" cx="11" cy="11" r="10"/><path class="cls-2" d="M15,5H9A1,1,0,0,0,8,6V17a1,1,0,0,0,1,1H9a1,1,0,0,0,1-1V12a1,1,0,0,1,1-1h4a1,1,0,0,0,1-1V6A1,1,0,0,0,15,5Z"/></g><g id="stopped"><path class="cls-1" d="M33,1A10,10,0,1,0,43,11,10,10,0,0,0,33,1Zm0,3a7,7,0,0,1,3.55,1L27,14.55A7,7,0,0,1,33,4Zm0,14a7,7,0,0,1-3.55-1L39,7.45A7,7,0,0,1,33,18Z"/></g><g id="rejected"><circle class="cls-1" cx="55" cy="11" r="10"/><path class="cls-3" d="M54.83,17a4.5,4.5,0,0,0,0-9H52"/><polyline class="cls-4" points="53.73 10.74 50.96 7.97 53.73 5.2"/></g><g id="inform"><circle class="cls-5" cx="77" cy="11" r="10"/><rect class="cls-2" x="76" y="8" width="2" height="10" rx="1" ry="1"/><rect class="cls-2" x="76" y="4" width="2" height="2" rx="1" ry="1"/></g><g id="delayed"><circle class="cls-6" cx="99" cy="11" r="10"/><path class="cls-2" d="M103.24,13.83,100,10.59V5a1,1,0,0,0-2,0v6h0a1,1,0,0,0,.29.7l3.54,3.54a1,1,0,0,0,1.41-1.41Z"/></g><g id="decision"><circle class="cls-7" cx="121" cy="11" r="10"/><path class="cls-2" d="M117.11,16a2.5,2.5,0,0,1-1.77-4.27L121,6.05A3.5,3.5,0,0,1,125.95,11l-4.6,4.6-.71-.71,4.6-4.6a2.5,2.5,0,0,0-3.54-3.54l-5.66,5.66a1.5,1.5,0,0,0,0,2.12,1.54,1.54,0,0,0,2.12,0l5-4.95a.5.5,0,0,0-.71-.71l-3.89,3.89-.71-.71,3.89-3.89a1.5,1.5,0,0,1,2.12,2.12l-5,4.95A2.48,2.48,0,0,1,117.11,16Z"/></g><g id="amendment-request"><circle class="cls-7" cx="143" cy="11" r="10"/><path class="cls-8" d="M139.46,14.54A5,5,0,0,0,148,11V9"/><polyline class="cls-4" points="150.12 10.5 148 8.38 145.88 10.5"/><path class="cls-8" d="M146.54,7.46A5,5,0,0,0,138,11v2"/><polyline class="cls-4" points="135.88 11.5 138 13.62 140.12 11.5"/></g></svg>