<svg id="Layer_1" data-name="Layer 1" xmlns="http://www.w3.org/2000/svg" width="120" height="20" viewBox="0 0 120 20">
  <title>label-icons</title>
  <g id="rfi">
    <circle cx="10" cy="10" r="10" fill="#b10e1e"/>
    <path d="M14,4H8A1,1,0,0,0,7,5V16a1,1,0,0,0,1,1H8a1,1,0,0,0,1-1V11a1,1,0,0,1,1-1h4a1,1,0,0,0,1-1V5A1,1,0,0,0,14,4Z"
          fill="#fff"/>
  </g>
  <g id="stopped">
    <path
      d="M30,0A10,10,0,1,0,40,10,10,10,0,0,0,30,0Zm0,3a7,7,0,0,1,3.55,1L24,13.55A7,7,0,0,1,30,3Zm0,14a7,7,0,0,1-3.55-1L36,6.45A7,7,0,0,1,30,17Z"
      fill="#b10e1e"/>
  </g>
  <g id="rejected">
    <circle cx="50" cy="10" r="10" fill="#b10e1e"/>
    <path
      d="M54.88,10.66A5.55,5.55,0,0,0,49.33,6.5h-.42l1.29-1.29a1,1,0,0,0-1.41-1.41l-3,3a1,1,0,0,0-.13.15l0,.08-.05.1a1,1,0,0,0,0,.1l0,.09a1,1,0,0,0,0,.39l0,.09a1,1,0,0,0,0,.1l.05.1,0,.08a1,1,0,0,0,.13.15l3,3a1,1,0,0,0,1.41-1.41L48.91,8.5h.42a3.6,3.6,0,0,1,3.6,2.58,3.08,3.08,0,0,1-.63,2.62A3.57,3.57,0,0,1,49.5,15a1,1,0,0,0,0,2,5.56,5.56,0,0,0,4.35-2A5.11,5.11,0,0,0,54.88,10.66Z"
      fill="#fff"/>
  </g>
  <g id="inform">
    <circle cx="70" cy="10" r="10" fill="#005ea5"/>
    <rect x="69" y="7" width="2" height="10" rx="1" ry="1" fill="#fff"/>
    <rect x="69" y="3" width="2" height="2" rx="1" ry="1" fill="#fff"/>
  </g>
  <g id="delayed">
    <circle cx="90" cy="10" r="10" fill="#f47738"/>
    <path d="M94.24,12.83,91,9.59V4a1,1,0,0,0-2,0v6h0a1,1,0,0,0,.29.7l3.54,3.54a1,1,0,1,0,1.41-1.41Z" fill="#fff"/>
  </g>
  <g id="decision">
    <circle cx="110" cy="10" r="10" fill="#00823b"/>
    <path
      d="M106.11,15a2.5,2.5,0,0,1-1.77-4.27L110,5.05A3.5,3.5,0,0,1,114.95,10l-4.6,4.6-.71-.71,4.6-4.6a2.5,2.5,0,0,0-3.54-3.54l-5.66,5.66a1.5,1.5,0,0,0,0,2.12,1.54,1.54,0,0,0,2.12,0l5-4.95a.5.5,0,0,0-.71-.71l-3.89,3.89-.71-.71,3.89-3.89a1.5,1.5,0,0,1,2.12,2.12l-5,4.95A2.48,2.48,0,0,1,106.11,15Z"
      fill="#fff"/>
  </g>
</svg>